<svg class="svg-icon" style="width: 1em; height: 1em;vertical-align: middle;fill: currentColor;overflow: hidden;" viewBox="0 0 1024 1024" version="1.1" xmlns="http://www.w3.org/2000/svg"><path d="M516.937956 424.004267c81.692444 0 147.911111-66.218667 147.911111-147.911111s-66.218667-147.911111-147.911111-147.911111c-81.692444 0-147.911111 66.218667-147.911111 147.911111S435.256889 424.004267 516.937956 424.004267zM465.885867 311.5008c1.695289-3.401956 4.619378-5.9392 8.226133-7.145244 1.467733-0.500622 2.980978-0.739556 4.516978-0.739556 6.132622 0 11.548444 3.913956 13.505422 9.716622 2.173156 6.485333 10.217244 14.062933 25.747911 14.062933 12.322133 0 19.615289-8.0896 20.434489-16.088178 0.796444-7.702756-4.9152-17.3056-23.358578-21.151289-37.011911-7.759644-47.8208-32.836267-45.829689-51.950933 1.956978-18.898489 15.598933-34.338133 34.520178-39.651556l0-10.626844c0-7.839289 6.382933-14.2336 14.2336-14.2336s14.2336 6.394311 14.2336 14.2336l0 10.126222c21.902222 4.562489 34.212978 19.205689 38.513778 32.017067 2.491733 7.452444-1.547378 15.530667-8.988444 18.0224-1.467733 0.500622-2.992356 0.739556-4.528356 0.739556-6.121244 0-11.537067-3.902578-13.494044-9.716622-2.173156-6.496711-10.217244-14.074311-25.747911-14.074311-12.322133 0-19.615289 8.0896-20.434489 16.088178-0.796444 7.691378 4.926578 17.3056 23.358578 21.151289 37.000533 7.759644 47.8208 32.836267 45.841067 51.950933-1.956978 18.898489-15.598933 34.338133-34.520178 39.651556l0 10.626844c0 7.839289-6.382933 14.2336-14.2336 14.2336s-14.2336-6.394311-14.2336-14.2336l0-10.126222c-21.9136-4.562489-34.224356-19.217067-38.513778-32.039822C463.917511 318.7712 464.190578 314.902756 465.885867 311.5008zM820.747378 564.713244c-8.237511-36.784356-38.286222-64.682667-75.582578-70.166756l-131.515733-19.342222L548.511289 624.64l-8.408178-73.659733c-0.227556-2.332444-2.184533-4.107378-4.528356-4.107378l-37.216711 0c-2.3552 0-4.323556 1.797689-4.528356 4.152889l-7.634489 75.480178-65.956978-151.313067-131.515733 19.342222c-37.296356 5.484089-67.345067 33.3824-75.582578 70.166756l-71.657244 320.091022 125.155556 0 39.822222-170.666667 11.377778 170.666667 199.111111 0 199.111111 0 11.377778-170.666667 39.822222 170.666667 125.155556 0L820.747378 564.713244zM596.5824 680.004267l68.266667-45.511111 22.755556 45.511111L596.5824 680.004267zM516.937956 462.688711c17.726578 0 45.568 2.275556 45.511111 18.204444-0.056889 13.653333-11.320889 31.857778-18.147556 38.684444-6.826667 6.826667-18.261333 6.826667-27.363556 6.826667-9.102222 0-20.536889 0-27.363556-6.826667-6.826667-6.826667-18.090667-25.031111-18.147556-38.684444C471.369956 464.964267 499.211378 462.688711 516.937956 462.688711z"  /></svg>